<svg width="8" height="9" viewBox="0 0 8 9" fill="none" xmlns="http://www.w3.org/2000/svg">
<path d="M3.6798 7.92717C3.77166 8.02376 3.89724 8.08174 4.03243 8.08174C4.16778 8.08174 4.29336 8.02376 4.38506 7.92717L7.21603 4.88853C7.3996 4.6952 7.3851 4.38605 7.19192 4.20737C6.99859 4.02381 6.68945 4.03815 6.51077 4.23148L4.51553 6.37153V1.09625C4.51553 0.830445 4.29809 0.613159 4.03243 0.613159C3.76678 0.613159 3.54934 0.830445 3.54934 1.09625V6.37153L1.55898 4.23148C1.37541 4.03831 1.071 4.02381 0.877824 4.20737C0.684647 4.39094 0.670151 4.69535 0.853715 4.88853L3.6798 7.92717Z" fill="#696969"/>
</svg>
