<svg width="16" height="16" viewBox="0 0 16 16" fill="none" xmlns="http://www.w3.org/2000/svg">
<g clip-path="url(#clip0_148_2123)">
<path d="M0.124173 5.43754C1.17798 6.22798 2.13842 7.13841 2.94894 8.11088C2.16682 7.83944 1.30082 7.68757 0.472609 7.68757H0.311673C0.173954 7.68757 0.0524861 7.77772 0.01258 7.9095C-0.0273261 8.04132 0.0237362 8.18369 0.138329 8.26006C0.297298 8.40075 2.27751 9.41309 2.84713 11.4873C1.95651 11.6785 1.27523 12.4061 1.14642 13.3125H0.311704C0.139111 13.3125 -0.00079498 13.4524 -0.00079498 13.625C-0.00079498 13.7976 0.139111 13.9375 0.311704 13.9375H3.93669C4.10928 13.9375 4.24919 13.7976 4.24919 13.625C4.24919 13.4524 4.10928 13.3125 3.93669 13.3125H1.78039C1.91963 12.6221 2.5116 12.0961 3.24197 12.0641C3.66569 12.0451 4.07616 12.197 4.38556 12.49C4.53362 12.6302 4.77462 12.5932 4.87369 12.4148C5.307 11.634 6.13168 11.125 7.06168 11.125C7.85033 11.125 8.5532 11.4871 9.01514 12.0654C8.76426 12.3707 8.62417 12.7553 8.62417 13.1563C8.62417 13.2087 8.62667 13.2608 8.63136 13.3125H6.74921C6.57662 13.3125 6.43671 13.4524 6.43671 13.625C6.43671 13.7976 6.57662 13.9375 6.74921 13.9375H15.6866C15.8592 13.9375 15.9991 13.7976 15.9991 13.625C15.9991 13.4524 15.8592 13.3125 15.6866 13.3125H14.8519C14.7231 12.406 14.0417 11.6783 13.1512 11.4872C13.7206 9.41393 15.6973 8.40397 15.86 8.26003C15.9746 8.18366 16.0256 8.04128 15.9857 7.90947C15.9458 7.77769 15.8244 7.68754 15.6866 7.68754H15.5257C14.7836 7.68754 13.9954 7.80913 13.2864 8.02482C14.4138 6.39513 15.6941 5.59276 15.8741 5.43757C15.9909 5.35001 16.0315 5.19329 15.9719 5.06001C15.9124 4.92673 15.7685 4.85248 15.6254 4.88108C13.7808 5.24992 12.0903 6.17079 10.8077 7.43685C10.9889 6.04985 11.398 4.7132 12.0286 3.4523C12.0888 3.33199 12.0652 3.18668 11.9701 3.09158C11.875 2.99649 11.7297 2.97287 11.6094 3.03302C9.94979 3.8628 8.63355 5.33583 8.0298 7.20363C7.06318 5.09373 5.47146 3.3063 3.47244 2.10706C3.34944 2.03324 3.19207 2.05265 3.09069 2.15406C2.98929 2.25546 2.96994 2.41284 3.04369 2.53577C4.10397 4.39111 4.79869 5.20111 5.33043 6.85423C3.969 5.5697 2.10367 4.87498 0.311673 4.87498C0.177173 4.87498 0.0577673 4.96105 0.015205 5.08864C-0.0272949 5.21633 0.01658 5.35683 0.124173 5.43754ZM4.52262 11.8028C4.21288 11.5964 3.85575 11.4729 3.48144 11.4441C3.20494 10.3149 2.4532 9.20981 1.40239 8.37841C2.24645 8.49606 3.07535 8.76691 3.74157 9.15131C4.22681 9.85153 4.63603 10.5772 4.9604 11.3123C4.79712 11.4605 4.65069 11.6243 4.52262 11.8028ZM14.218 13.3125H9.26039C9.25307 13.2611 9.24917 13.209 9.24917 13.1563C9.24917 12.8393 9.38661 12.5381 9.62623 12.33C9.82492 12.1575 10.0794 12.0625 10.3429 12.0625C10.6647 12.0625 10.9688 12.2033 11.1772 12.4488C11.1773 12.4489 11.1773 12.449 11.1774 12.4491C11.2918 12.5835 11.4968 12.5964 11.6271 12.4765C11.6272 12.4764 11.6272 12.4764 11.6273 12.4763C11.9338 12.1936 12.3379 12.0456 12.7567 12.0641C13.4868 12.0961 14.0787 12.6221 14.218 13.3125ZM12.5169 11.4441C12.2694 11.4632 12.0292 11.5239 11.805 11.6226C11.9562 10.687 12.2743 9.77093 12.7532 8.89025C13.2936 8.64394 13.9409 8.46566 14.5981 8.37669C13.5462 9.20828 12.7936 10.3141 12.5169 11.4441ZM14.2846 5.92382C12.6612 7.43379 11.4916 9.44656 11.1691 11.6492C10.9188 11.512 10.6357 11.4376 10.3429 11.4376C10.0429 11.4376 9.75042 11.5163 9.49314 11.6627C9.38786 11.5324 9.27245 11.4106 9.14723 11.2983C9.31583 10.9287 9.59179 9.821 10.6509 8.53356C11.5961 7.38404 12.8737 6.47454 14.2846 5.92382ZM11.0517 4.09383C10.515 5.40704 10.1975 6.78901 10.1044 8.21534C9.62157 8.81603 9.22648 9.46634 8.92704 10.1539C8.81792 9.48296 8.64886 8.82169 8.42402 8.18147C8.73592 6.52641 9.69107 5.05705 11.0517 4.09383ZM4.32575 3.45783C5.90512 4.7148 7.11952 6.39792 7.8073 8.31053C8.07899 9.06565 8.26739 9.85299 8.3672 10.6507L8.38498 10.7929C7.97464 10.6004 7.52661 10.5 7.06168 10.5C6.85008 10.5 6.64118 10.5215 6.43668 10.563V9.91874C6.43668 6.3336 4.65778 4.09711 4.32575 3.45783ZM5.65831 8.17744C5.75974 8.75019 5.81168 9.33559 5.81168 9.91878V10.7606C5.69603 10.8112 5.58371 10.8685 5.47525 10.9326C4.53756 8.86969 3.04666 7.04941 1.30142 5.57617C3.05238 5.8446 4.68884 6.80548 5.65831 8.17744Z" fill="#696969"/>
<path d="M5.34229 13.9375C5.51487 13.9375 5.65479 13.7976 5.65479 13.625C5.65479 13.4524 5.51487 13.3125 5.34229 13.3125C5.1697 13.3125 5.02979 13.4524 5.02979 13.625C5.02979 13.7976 5.1697 13.9375 5.34229 13.9375Z" fill="#696969"/>
</g>
<defs>
<clipPath id="clip0_148_2123">
<rect width="16" height="16" fill="white"/>
</clipPath>
</defs>
</svg>
